<svg width="67" height="80" viewBox="0 0 67 80" fill="none" xmlns="http://www.w3.org/2000/svg">
<mask id="path-1-inside-1_524_3832" fill="white">
<path d="M15.5244 50.8838C15.4913 49.9771 16.0472 49.6418 16.8061 49.4212C18.9967 48.7858 21.1806 48.1307 23.3514 47.4313C23.6867 47.3232 24.1036 46.9923 24.1941 46.6791C24.6 45.2871 24.9177 43.8664 25.2177 42.4457C25.2618 42.2427 25.1052 41.9052 24.9331 41.7596C22.3035 39.5315 20.8409 36.6284 20.0556 33.3414C19.9364 32.845 19.7379 32.6024 19.2724 32.4303C18.101 32.0023 17.2627 31.1861 16.8259 30.0147C16.0781 28.005 16.1068 24.7842 18.3525 23.3062C18.2179 23.0547 18.0834 22.7966 17.9444 22.5407C16.5303 19.9331 15.7494 17.1557 15.6964 14.1798C15.5928 8.38895 19.5195 4.07837 25.3015 3.62392C25.6015 3.59966 25.9655 3.48273 26.1685 3.27978C29.3121 0.122944 33.1219 -0.534454 37.2935 0.376638C40.3952 1.05389 43.2653 2.29809 45.5926 4.54384C48.6502 7.4933 49.623 11.1928 49.3385 15.3115C49.1554 17.9698 48.4384 20.5001 47.3972 23.0282C48.6744 23.5841 49.6054 24.5327 49.7422 25.8784C49.8767 27.1888 49.7885 28.5565 49.5569 29.8559C49.3561 30.9743 48.5355 31.8501 47.4589 32.2472C46.6118 32.5583 46.3537 33.1076 46.1529 33.8929C45.3698 36.9461 43.9116 39.611 41.5048 41.7155C41.2975 41.8964 41.1033 42.2913 41.1541 42.5362C41.4365 43.9304 41.7541 45.3224 42.1534 46.6879C42.2439 46.999 42.6652 47.3232 43.0005 47.4313C45.1161 48.1174 47.2471 48.7594 49.3848 49.3815C50.1768 49.6109 50.8694 49.8734 50.7856 50.9147C53.2321 50.9235 55.5308 51.3029 57.6552 52.3662C63.1791 55.1282 66.208 59.5954 66.4176 65.7878C66.561 70.0233 66.4529 74.2677 66.4507 78.5077C66.4507 79.6725 66.1043 79.999 64.902 79.999C49.7378 80.0012 34.5735 79.999 19.4092 79.999C13.4926 79.999 7.57604 79.999 1.65725 79.999C0.298332 79.999 0.00492472 79.71 0.00492472 78.3643C0.00271869 74.3714 -0.00610329 70.3807 0.00713291 66.3878C0.0291932 58.6534 5.17808 52.4876 12.7801 51.1176C13.6448 50.961 14.5361 50.9632 15.5244 50.8838ZM25.7427 12.3863C24.1897 13.5643 23.1793 15.0446 22.4756 16.752C21.5733 18.9382 21.3858 21.2237 21.5358 23.5532C21.6108 24.7158 21.3527 25.0048 20.2232 25.168C19.846 25.2232 19.3849 25.3997 19.1599 25.6776C17.8517 27.2969 18.8621 30.1294 20.8806 30.5199C21.6219 30.6633 21.9086 31.0537 22.0807 31.7575C22.4248 33.1649 22.7293 34.6143 23.3227 35.9225C26.1597 42.1898 33.669 44.2944 39.3517 40.4492C42.3564 38.4153 43.6822 35.3533 44.2624 31.9119C44.4014 31.0868 44.7124 30.6214 45.5728 30.5044C46.6228 30.361 47.3773 29.7676 47.5494 28.6911C47.6619 27.994 47.6575 27.2572 47.5714 26.5556C47.4523 25.574 46.9096 25.1614 45.9522 25.157C44.8911 25.1526 44.547 24.8063 44.4675 23.754C44.3175 21.7708 43.7991 19.8956 42.5637 18.3073C41.4364 16.8579 39.9981 16.1035 38.0568 16.2799C36.7574 16.3969 35.414 16.3042 34.1168 16.1211C31.0041 15.6821 28.2333 14.396 25.7427 12.3863ZM64.1498 77.6628C64.1498 73.542 64.2954 69.4939 64.1123 65.459C63.8806 60.383 61.2599 56.7408 56.7485 54.4509C56.3956 54.2723 56.0117 54.1509 55.4536 53.9259C56.5676 56.2952 57.0883 58.6093 57.2846 60.994C57.3331 61.5941 57.5229 61.8787 58.0854 62.1169C60.0774 62.953 61.1187 65.0708 60.662 67.1908C60.2186 69.249 58.3832 70.7293 56.2676 70.7315C54.1962 70.7337 52.3232 69.2556 51.8842 67.2746C51.3989 65.0774 52.4137 63.0412 54.43 62.0904C54.6749 61.9757 55.019 61.6647 55.0058 61.4705C54.805 58.788 54.2888 56.1893 52.7534 53.895C52.4269 53.4075 52.032 53.2773 51.4651 53.2001C50.0973 53.0126 49.2193 53.4494 48.8487 54.8193C48.7781 55.0797 48.6083 55.3135 48.4869 55.5584C47.5097 57.5173 47.5097 57.5195 48.9414 59.1366C49.8061 60.1116 49.8304 60.3565 49.1532 61.4507C46.0029 66.551 42.8505 71.6492 39.7003 76.7495C39.5326 77.0231 39.3738 77.3011 39.162 77.6606C47.5317 77.6628 55.7933 77.6628 64.1498 77.6628ZM2.35656 77.654C10.6115 77.654 18.8378 77.654 27.1811 77.654C26.1883 76.0436 25.2552 74.5281 24.3176 73.0147C21.902 69.1078 19.4974 65.1965 17.062 61.3029C16.5943 60.555 16.6009 59.9418 17.2296 59.313C17.6576 58.8851 18.0878 58.4461 18.4231 57.9497C18.5797 57.7181 18.6415 57.2879 18.5378 57.0342C18.1937 56.1981 17.6532 55.4326 17.3752 54.5789C16.987 53.3898 16.2457 53.1361 15.0898 53.1957C14.0353 53.2509 13.1816 53.4516 12.5109 54.3384C10.9226 56.4342 10.4351 58.8233 10.4306 61.4044C11.1013 61.4551 11.7101 61.4419 12.2925 61.5566C16.0031 62.2824 18.593 66.165 17.8672 69.8733C17.7172 70.6388 17.2208 70.8594 15.9545 70.7204C14.8008 70.5925 14.2405 70.2042 14.3662 69.4718C14.4302 69.1012 14.7853 68.7615 15.0589 68.4548C15.1604 68.3401 15.4097 68.3556 15.5817 68.3137C15.5773 66.401 14.2515 64.5744 12.4492 63.9523C10.8277 63.392 9.05187 63.9192 7.92679 65.2958C6.68921 66.8113 6.52376 68.8938 7.54074 70.5638C7.65325 70.5307 7.77899 70.491 7.90694 70.4601C8.6967 70.2704 9.25703 70.5175 9.45337 71.1396C9.65853 71.7837 9.37174 72.3176 8.63493 72.6265C8.25549 72.7853 7.85841 72.9044 7.48118 73.0677C6.87231 73.328 6.40243 73.1162 6.03402 72.6375C3.98903 69.9792 4.03977 65.9003 6.45537 63.628C7.69737 62.4611 8.17607 61.336 8.27093 59.6837C8.37021 57.9718 8.98349 56.2886 9.36292 54.6407C9.36513 54.6385 9.21732 54.687 9.08496 54.762C5.03027 57.0982 2.59702 60.555 2.36097 65.2561C2.16022 69.2645 2.2992 73.2905 2.29258 77.3099C2.29699 77.4136 2.33229 77.5172 2.35656 77.654ZM46.186 20.0567C46.4861 18.3999 46.8611 16.902 47.0111 15.3821C47.3883 11.5877 46.4839 8.21247 43.4263 5.67553C41.3438 3.94821 38.8973 2.95549 36.2677 2.49664C32.8462 1.90101 29.7643 2.53193 27.3818 5.35124C27.1061 5.67774 26.4707 5.82995 25.9964 5.84098C22.4204 5.92261 19.707 7.76685 18.518 10.9303C17.9267 12.501 17.8716 14.1026 18.09 15.7262C18.2841 17.1844 18.5511 18.6316 19.2945 20.1008C19.332 19.8316 19.3474 19.7258 19.3629 19.6177C19.9122 15.8696 21.4917 12.704 24.5801 10.3987C25.7163 9.55153 25.992 9.58463 27.0884 10.4891C30.221 13.0702 33.8323 14.3166 37.8693 14.0077C40.7614 13.7849 42.8814 14.9387 44.5183 17.1646C45.1316 17.994 45.5617 18.9581 46.186 20.0567ZM30.2541 77.6761C32.2549 77.6761 34.119 77.6761 36.0736 77.6761C37.0398 71.283 38.0017 64.9142 38.9591 58.5762C35.0588 58.5762 31.2556 58.5762 27.3708 58.5762C28.3304 64.9318 29.29 71.2852 30.2541 77.6761ZM38.7032 43.4693C35.0522 45.0466 31.2865 45.0444 27.523 43.3921C27.4612 43.5267 27.4061 43.6215 27.3752 43.723C26.9009 45.265 26.4288 46.807 25.9655 48.3535C25.9192 48.5057 25.8861 48.68 25.9082 48.8344C26.2589 51.2257 26.6185 53.6127 26.9781 56.0106C27.2119 56.0636 27.395 56.1275 27.5826 56.1452C31.2887 56.4827 34.997 56.4695 38.7054 56.165C39.3032 56.1165 39.3981 55.779 39.4643 55.3157C39.7422 53.4119 40.04 51.5103 40.3158 49.6065C40.3731 49.205 40.4923 48.7594 40.3798 48.3976C39.8768 46.7806 39.2966 45.1878 38.7032 43.4693ZM27.1149 73.1824C27.1634 73.1713 27.2141 73.1625 27.2627 73.1515C26.0847 65.3664 24.9066 57.5835 23.7198 49.73C21.8711 50.2904 20.1284 50.8176 18.3172 51.3669C19.268 53.2884 20.1482 55.1172 21.0792 56.9195C21.4343 57.61 21.3726 58.1659 20.8431 58.713C20.4416 59.1277 20.0975 59.5998 19.6783 59.9969C19.2989 60.3565 19.3408 60.6433 19.6011 61.0602C21.3836 63.9016 23.1396 66.7606 24.9044 69.613C25.6434 70.8043 26.3803 71.9933 27.1149 73.1824ZM42.6101 49.7278C41.432 57.5284 40.2695 65.2429 39.1047 72.9552C39.4598 72.7676 39.6319 72.5272 39.7841 72.2801C41.796 69.0306 43.8057 65.7789 45.8132 62.525C46.2169 61.872 46.9361 61.1815 46.892 60.5506C46.8501 59.9285 46.025 59.3594 45.5419 58.7682C45.5066 58.7262 45.4735 58.6821 45.4338 58.6424C44.9507 58.1438 44.9021 57.6144 45.222 56.9901C46.0007 55.4745 46.7486 53.9436 47.503 52.4148C47.6663 52.0817 47.8097 51.7397 47.984 51.3537C46.1684 50.8066 44.4631 50.2904 42.6101 49.7278ZM56.2853 68.4328C57.5052 68.424 58.4869 67.4511 58.4935 66.2422C58.5001 65.0068 57.4853 63.9942 56.2433 64.0009C55.0389 64.0053 54.0506 64.9914 54.0417 66.2003C54.0307 67.4511 55.0278 68.4416 56.2853 68.4328Z"/>
</mask>
<path d="M15.5244 50.8838C15.4913 49.9771 16.0472 49.6418 16.8061 49.4212C18.9967 48.7858 21.1806 48.1307 23.3514 47.4313C23.6867 47.3232 24.1036 46.9923 24.1941 46.6791C24.6 45.2871 24.9177 43.8664 25.2177 42.4457C25.2618 42.2427 25.1052 41.9052 24.9331 41.7596C22.3035 39.5315 20.8409 36.6284 20.0556 33.3414C19.9364 32.845 19.7379 32.6024 19.2724 32.4303C18.101 32.0023 17.2627 31.1861 16.8259 30.0147C16.0781 28.005 16.1068 24.7842 18.3525 23.3062C18.2179 23.0547 18.0834 22.7966 17.9444 22.5407C16.5303 19.9331 15.7494 17.1557 15.6964 14.1798C15.5928 8.38895 19.5195 4.07837 25.3015 3.62392C25.6015 3.59966 25.9655 3.48273 26.1685 3.27978C29.3121 0.122944 33.1219 -0.534454 37.2935 0.376638C40.3952 1.05389 43.2653 2.29809 45.5926 4.54384C48.6502 7.4933 49.623 11.1928 49.3385 15.3115C49.1554 17.9698 48.4384 20.5001 47.3972 23.0282C48.6744 23.5841 49.6054 24.5327 49.7422 25.8784C49.8767 27.1888 49.7885 28.5565 49.5569 29.8559C49.3561 30.9743 48.5355 31.8501 47.4589 32.2472C46.6118 32.5583 46.3537 33.1076 46.1529 33.8929C45.3698 36.9461 43.9116 39.611 41.5048 41.7155C41.2975 41.8964 41.1033 42.2913 41.1541 42.5362C41.4365 43.9304 41.7541 45.3224 42.1534 46.6879C42.2439 46.999 42.6652 47.3232 43.0005 47.4313C45.1161 48.1174 47.2471 48.7594 49.3848 49.3815C50.1768 49.6109 50.8694 49.8734 50.7856 50.9147C53.2321 50.9235 55.5308 51.3029 57.6552 52.3662C63.1791 55.1282 66.208 59.5954 66.4176 65.7878C66.561 70.0233 66.4529 74.2677 66.4507 78.5077C66.4507 79.6725 66.1043 79.999 64.902 79.999C49.7378 80.0012 34.5735 79.999 19.4092 79.999C13.4926 79.999 7.57604 79.999 1.65725 79.999C0.298332 79.999 0.00492472 79.71 0.00492472 78.3643C0.00271869 74.3714 -0.00610329 70.3807 0.00713291 66.3878C0.0291932 58.6534 5.17808 52.4876 12.7801 51.1176C13.6448 50.961 14.5361 50.9632 15.5244 50.8838ZM25.7427 12.3863C24.1897 13.5643 23.1793 15.0446 22.4756 16.752C21.5733 18.9382 21.3858 21.2237 21.5358 23.5532C21.6108 24.7158 21.3527 25.0048 20.2232 25.168C19.846 25.2232 19.3849 25.3997 19.1599 25.6776C17.8517 27.2969 18.8621 30.1294 20.8806 30.5199C21.6219 30.6633 21.9086 31.0537 22.0807 31.7575C22.4248 33.1649 22.7293 34.6143 23.3227 35.9225C26.1597 42.1898 33.669 44.2944 39.3517 40.4492C42.3564 38.4153 43.6822 35.3533 44.2624 31.9119C44.4014 31.0868 44.7124 30.6214 45.5728 30.5044C46.6228 30.361 47.3773 29.7676 47.5494 28.6911C47.6619 27.994 47.6575 27.2572 47.5714 26.5556C47.4523 25.574 46.9096 25.1614 45.9522 25.157C44.8911 25.1526 44.547 24.8063 44.4675 23.754C44.3175 21.7708 43.7991 19.8956 42.5637 18.3073C41.4364 16.8579 39.9981 16.1035 38.0568 16.2799C36.7574 16.3969 35.414 16.3042 34.1168 16.1211C31.0041 15.6821 28.2333 14.396 25.7427 12.3863ZM64.1498 77.6628C64.1498 73.542 64.2954 69.4939 64.1123 65.459C63.8806 60.383 61.2599 56.7408 56.7485 54.4509C56.3956 54.2723 56.0117 54.1509 55.4536 53.9259C56.5676 56.2952 57.0883 58.6093 57.2846 60.994C57.3331 61.5941 57.5229 61.8787 58.0854 62.1169C60.0774 62.953 61.1187 65.0708 60.662 67.1908C60.2186 69.249 58.3832 70.7293 56.2676 70.7315C54.1962 70.7337 52.3232 69.2556 51.8842 67.2746C51.3989 65.0774 52.4137 63.0412 54.43 62.0904C54.6749 61.9757 55.019 61.6647 55.0058 61.4705C54.805 58.788 54.2888 56.1893 52.7534 53.895C52.4269 53.4075 52.032 53.2773 51.4651 53.2001C50.0973 53.0126 49.2193 53.4494 48.8487 54.8193C48.7781 55.0797 48.6083 55.3135 48.4869 55.5584C47.5097 57.5173 47.5097 57.5195 48.9414 59.1366C49.8061 60.1116 49.8304 60.3565 49.1532 61.4507C46.0029 66.551 42.8505 71.6492 39.7003 76.7495C39.5326 77.0231 39.3738 77.3011 39.162 77.6606C47.5317 77.6628 55.7933 77.6628 64.1498 77.6628ZM2.35656 77.654C10.6115 77.654 18.8378 77.654 27.1811 77.654C26.1883 76.0436 25.2552 74.5281 24.3176 73.0147C21.902 69.1078 19.4974 65.1965 17.062 61.3029C16.5943 60.555 16.6009 59.9418 17.2296 59.313C17.6576 58.8851 18.0878 58.4461 18.4231 57.9497C18.5797 57.7181 18.6415 57.2879 18.5378 57.0342C18.1937 56.1981 17.6532 55.4326 17.3752 54.5789C16.987 53.3898 16.2457 53.1361 15.0898 53.1957C14.0353 53.2509 13.1816 53.4516 12.5109 54.3384C10.9226 56.4342 10.4351 58.8233 10.4306 61.4044C11.1013 61.4551 11.7101 61.4419 12.2925 61.5566C16.0031 62.2824 18.593 66.165 17.8672 69.8733C17.7172 70.6388 17.2208 70.8594 15.9545 70.7204C14.8008 70.5925 14.2405 70.2042 14.3662 69.4718C14.4302 69.1012 14.7853 68.7615 15.0589 68.4548C15.1604 68.3401 15.4097 68.3556 15.5817 68.3137C15.5773 66.401 14.2515 64.5744 12.4492 63.9523C10.8277 63.392 9.05187 63.9192 7.92679 65.2958C6.68921 66.8113 6.52376 68.8938 7.54074 70.5638C7.65325 70.5307 7.77899 70.491 7.90694 70.4601C8.6967 70.2704 9.25703 70.5175 9.45337 71.1396C9.65853 71.7837 9.37174 72.3176 8.63493 72.6265C8.25549 72.7853 7.85841 72.9044 7.48118 73.0677C6.87231 73.328 6.40243 73.1162 6.03402 72.6375C3.98903 69.9792 4.03977 65.9003 6.45537 63.628C7.69737 62.4611 8.17607 61.336 8.27093 59.6837C8.37021 57.9718 8.98349 56.2886 9.36292 54.6407C9.36513 54.6385 9.21732 54.687 9.08496 54.762C5.03027 57.0982 2.59702 60.555 2.36097 65.2561C2.16022 69.2645 2.2992 73.2905 2.29258 77.3099C2.29699 77.4136 2.33229 77.5172 2.35656 77.654ZM46.186 20.0567C46.4861 18.3999 46.8611 16.902 47.0111 15.3821C47.3883 11.5877 46.4839 8.21247 43.4263 5.67553C41.3438 3.94821 38.8973 2.95549 36.2677 2.49664C32.8462 1.90101 29.7643 2.53193 27.3818 5.35124C27.1061 5.67774 26.4707 5.82995 25.9964 5.84098C22.4204 5.92261 19.707 7.76685 18.518 10.9303C17.9267 12.501 17.8716 14.1026 18.09 15.7262C18.2841 17.1844 18.5511 18.6316 19.2945 20.1008C19.332 19.8316 19.3474 19.7258 19.3629 19.6177C19.9122 15.8696 21.4917 12.704 24.5801 10.3987C25.7163 9.55153 25.992 9.58463 27.0884 10.4891C30.221 13.0702 33.8323 14.3166 37.8693 14.0077C40.7614 13.7849 42.8814 14.9387 44.5183 17.1646C45.1316 17.994 45.5617 18.9581 46.186 20.0567ZM30.2541 77.6761C32.2549 77.6761 34.119 77.6761 36.0736 77.6761C37.0398 71.283 38.0017 64.9142 38.9591 58.5762C35.0588 58.5762 31.2556 58.5762 27.3708 58.5762C28.3304 64.9318 29.29 71.2852 30.2541 77.6761ZM38.7032 43.4693C35.0522 45.0466 31.2865 45.0444 27.523 43.3921C27.4612 43.5267 27.4061 43.6215 27.3752 43.723C26.9009 45.265 26.4288 46.807 25.9655 48.3535C25.9192 48.5057 25.8861 48.68 25.9082 48.8344C26.2589 51.2257 26.6185 53.6127 26.9781 56.0106C27.2119 56.0636 27.395 56.1275 27.5826 56.1452C31.2887 56.4827 34.997 56.4695 38.7054 56.165C39.3032 56.1165 39.3981 55.779 39.4643 55.3157C39.7422 53.4119 40.04 51.5103 40.3158 49.6065C40.3731 49.205 40.4923 48.7594 40.3798 48.3976C39.8768 46.7806 39.2966 45.1878 38.7032 43.4693ZM27.1149 73.1824C27.1634 73.1713 27.2141 73.1625 27.2627 73.1515C26.0847 65.3664 24.9066 57.5835 23.7198 49.73C21.8711 50.2904 20.1284 50.8176 18.3172 51.3669C19.268 53.2884 20.1482 55.1172 21.0792 56.9195C21.4343 57.61 21.3726 58.1659 20.8431 58.713C20.4416 59.1277 20.0975 59.5998 19.6783 59.9969C19.2989 60.3565 19.3408 60.6433 19.6011 61.0602C21.3836 63.9016 23.1396 66.7606 24.9044 69.613C25.6434 70.8043 26.3803 71.9933 27.1149 73.1824ZM42.6101 49.7278C41.432 57.5284 40.2695 65.2429 39.1047 72.9552C39.4598 72.7676 39.6319 72.5272 39.7841 72.2801C41.796 69.0306 43.8057 65.7789 45.8132 62.525C46.2169 61.872 46.9361 61.1815 46.892 60.5506C46.8501 59.9285 46.025 59.3594 45.5419 58.7682C45.5066 58.7262 45.4735 58.6821 45.4338 58.6424C44.9507 58.1438 44.9021 57.6144 45.222 56.9901C46.0007 55.4745 46.7486 53.9436 47.503 52.4148C47.6663 52.0817 47.8097 51.7397 47.984 51.3537C46.1684 50.8066 44.4631 50.2904 42.6101 49.7278ZM56.2853 68.4328C57.5052 68.424 58.4869 67.4511 58.4935 66.2422C58.5001 65.0068 57.4853 63.9942 56.2433 64.0009C55.0389 64.0053 54.0506 64.9914 54.0417 66.2003C54.0307 67.4511 55.0278 68.4416 56.2853 68.4328Z" fill="black" stroke="black" stroke-width="8" mask="url(#path-1-inside-1_524_3832)"/>
</svg>
