<svg width="71" height="72" viewBox="0 0 71 72" fill="none" xmlns="http://www.w3.org/2000/svg">
<path d="M13.8154 14.4185C13.8154 12.5656 13.6303 10.8051 13.8515 9.09641C14.4945 4.12373 18.8964 0.138371 23.912 0.075254C31.4817 -0.021675 39.0536 -0.0284374 46.621 0.075254C52.1804 0.151896 56.7741 4.91719 56.8937 10.4827C56.9207 11.7676 56.8982 13.0547 56.8982 14.3035C57.9834 14.4455 58.9987 14.4951 59.9712 14.7228C64.7905 15.8544 68.071 19.8307 68.3756 24.7696C69.0886 36.356 69.7903 47.9447 70.5664 59.5265C70.871 64.0822 69.4586 67.761 65.5802 70.333C64.0008 71.3789 62.2364 71.9335 60.3367 71.9763C58.7054 72.0123 57.0719 71.9966 55.4406 71.9966C40.6668 71.9966 25.8907 72.0011 11.1169 71.9943C5.71999 71.9921 1.40381 68.7258 0.268925 63.6629C-0.0266422 62.3442 -0.0379234 60.9241 0.0433011 59.5626C0.681815 48.7607 1.3632 37.9587 2.06038 27.159C2.16416 25.5383 2.23411 23.877 2.64249 22.3216C3.87214 17.651 8.05519 14.5064 12.8993 14.4185C13.1182 14.414 13.3393 14.4185 13.8154 14.4185ZM20.9157 18.0973C21.0759 21.9001 19.9004 25.0266 15.5797 25.1325C11.5749 25.2317 9.99556 22.5199 10.0249 18.6473C7.61974 19.9232 6.11032 21.7265 5.90951 24.2962C5.43796 30.3216 5.10178 36.356 4.71822 42.3881C4.3482 48.2242 4.04812 54.0647 3.60816 59.894C3.22234 64.9906 6.27051 68.4102 11.3764 68.4102C25.3921 68.4102 39.4078 68.4102 53.4236 68.4102C55.5918 68.4102 57.7578 68.4372 59.9238 68.4012C63.4412 68.3426 66.4285 65.8247 66.864 62.3533C67.0648 60.7573 66.8888 59.1028 66.7918 57.482C66.3856 50.6632 65.9457 43.8466 65.5125 37.03C65.244 32.7944 65.0184 28.5543 64.6641 24.3255C64.4633 21.9249 63.1389 20.1486 61.0587 18.9426C60.9097 18.8547 60.7225 18.8321 60.5533 18.778C60.4833 19.576 60.5036 20.3199 60.3434 21.0232C59.7343 23.6921 57.2795 25.4481 54.5968 25.1979C51.8645 24.9409 49.8136 22.7206 49.6895 19.8668C49.6647 19.2897 49.685 18.7082 49.685 18.0973C40.0486 18.0973 30.5431 18.0973 20.9157 18.0973ZM53.2182 14.4185C53.2182 12.8383 53.3423 11.3461 53.1934 9.88086C52.8369 6.40269 49.8519 3.66613 46.3435 3.64133C38.9746 3.58949 31.6035 3.60978 24.2324 3.63683C22.4838 3.64359 20.9541 4.32209 19.6432 5.48975C16.8838 7.94679 17.1794 11.1702 17.3103 14.3621C18.5354 14.3621 19.6748 14.3621 20.8887 14.3621C20.8887 13.7783 20.8819 13.2486 20.8909 12.7211C20.9451 9.52921 23.172 7.23898 26.3803 7.2187C32.3165 7.17812 38.2504 7.18038 44.1865 7.2187C47.3949 7.23898 49.6218 9.52245 49.6805 12.7166C49.6917 13.2689 49.6827 13.8189 49.6827 14.3847C50.0009 14.4005 50.1949 14.4185 50.3912 14.4207C51.3162 14.4185 52.2413 14.4185 53.2182 14.4185ZM46.0931 14.3802C46.0931 14.006 46.0931 13.7017 46.0931 13.3974C46.0931 11.3168 45.6057 10.8344 43.4939 10.8344C38.2301 10.8344 32.9663 10.8952 27.7047 10.8096C24.6724 10.76 24.3317 11.5016 24.4941 14.1998C24.4964 14.2494 24.5392 14.2945 24.5821 14.3802C31.7005 14.3802 38.8393 14.3802 46.0931 14.3802ZM13.6394 18.0995C13.7725 19.3281 13.2761 20.6152 14.605 21.3726C15.2819 21.758 15.9701 21.6972 16.5702 21.2125C17.6419 20.3469 17.1411 19.1815 17.2516 18.0995C15.9971 18.0995 14.8826 18.0995 13.6394 18.0995ZM53.3288 18.104C53.3288 18.7916 53.2972 19.3799 53.3356 19.9637C53.3987 20.8676 54.0711 21.5236 54.9578 21.6048C55.8061 21.6837 56.6861 21.1088 56.8215 20.241C56.9298 19.5445 56.844 18.8186 56.844 18.104C55.6527 18.104 54.5382 18.104 53.3288 18.104Z" fill="black"/>
<path d="M42.5035 36.0156C43.7354 36.0156 44.8545 36.0066 45.9759 36.0179C48.1373 36.0404 49.6468 37.5056 49.6738 39.6674C49.7032 42.0275 49.7032 44.3898 49.6738 46.7522C49.6468 48.9252 48.1779 50.3589 45.9826 50.3972C44.8635 50.4152 43.7445 50.3994 42.5035 50.3994C42.5035 51.4814 42.5058 52.4823 42.5035 53.4854C42.4968 56.1814 41.0776 57.6128 38.4039 57.615C36.238 57.6173 34.0697 57.6218 31.9037 57.6128C29.6024 57.6037 28.1065 56.125 28.0681 53.819C28.0501 52.7257 28.0659 51.6325 28.0659 50.3927C26.7798 50.3927 25.5547 50.422 24.3296 50.3859C22.7502 50.3386 21.4619 49.3332 21.0377 47.8297C20.9249 47.4307 20.8978 46.9979 20.8956 46.5809C20.882 44.3312 20.8775 42.0816 20.8933 39.8342C20.9091 37.4696 22.3847 36.0269 24.7673 36.0179C25.8322 36.0134 26.8949 36.0179 28.0681 36.0179C28.0681 34.9224 28.0659 33.8922 28.0681 32.8643C28.0794 30.2495 29.5279 28.8113 32.1632 28.8046C34.2728 28.8001 36.3846 28.7978 38.4942 28.8046C41.0144 28.8136 42.4855 30.2765 42.5035 32.7787C42.5103 33.8178 42.5035 34.857 42.5035 36.0156ZM46.039 46.8266C46.039 44.3696 46.039 42.0252 46.039 39.5772C43.6407 39.5772 41.2964 39.5772 38.862 39.5772C38.862 37.1562 38.862 34.839 38.862 32.4991C36.4297 32.4991 34.09 32.4991 31.6646 32.4991C31.6646 34.8863 31.6646 37.2081 31.6646 39.6245C29.2301 39.6245 26.8814 39.6245 24.5281 39.6245C24.5281 42.0681 24.5281 44.4146 24.5281 46.8446C26.9287 46.8446 29.2752 46.8446 31.7255 46.8446C31.7255 49.2724 31.7255 51.6144 31.7255 53.9745C34.151 53.9745 36.4704 53.9745 38.889 53.9745C38.889 51.5739 38.889 49.225 38.889 46.8289C41.3145 46.8266 43.6429 46.8266 46.039 46.8266Z" fill="black"/>
</svg>
