<svg width="72" height="72" viewBox="0 0 72 72" fill="none" xmlns="http://www.w3.org/2000/svg">
<path d="M55.3893 30.4605C54.4175 30.7034 53.9317 31.918 54.4175 32.8897C55.6322 35.8047 56.1181 38.9627 56.1181 42.1207C56.1181 56.696 44.2143 68.3562 29.8811 68.3562C15.5479 68.3562 3.64403 56.696 3.64403 42.1207C3.64403 27.5454 15.3049 15.8852 29.8811 15.8852C32.5534 15.8852 35.4686 16.371 38.1409 17.0998C39.1126 17.3427 40.0844 16.8569 40.3273 15.8852C40.5702 14.9135 40.0844 13.9418 39.1126 13.6989C36.1974 12.7272 33.0392 12.2414 29.8811 12.2414C13.3615 12.2414 0 25.602 0 42.1207C0 58.6393 13.3615 72 29.8811 72C46.4007 72 59.7621 58.6393 59.7621 42.1207C59.7621 38.4769 59.0333 34.833 57.8186 31.4321C57.5757 30.7034 56.361 30.2175 55.3893 30.4605ZM29.8811 36.0477C30.8528 36.0477 31.8246 35.3189 31.8246 34.1043C31.8246 32.8897 31.0957 32.1609 29.8811 32.1609C24.5365 32.1609 20.1636 36.5335 20.1636 41.8778C20.1636 47.222 24.5365 51.5946 29.8811 51.5946C35.2256 51.5946 39.5985 47.222 39.5985 41.8778C39.5985 40.9061 38.8697 39.9344 37.655 39.9344C36.4403 39.9344 35.9545 41.149 35.9545 42.1207C35.9545 45.5216 33.2822 48.1937 29.8811 48.1937C26.48 48.1937 23.8077 45.5216 23.8077 42.1207C23.8077 38.7198 26.48 36.0477 29.8811 36.0477ZM38.8697 26.5737C39.3555 25.602 38.8697 24.6304 37.8979 24.1445C35.4686 22.9299 32.5534 22.4441 29.8811 22.4441C18.949 22.4441 9.96036 31.1892 9.96036 42.1207C9.96036 53.0521 18.949 62.0402 29.8811 62.0402C40.8132 62.0402 49.8018 53.0521 49.8018 42.1207C49.8018 39.2056 49.3159 36.5335 48.1012 34.1043C47.6154 33.1326 46.6436 32.6468 45.6719 33.1326C44.7001 33.6184 44.4572 34.5901 44.7001 35.5618C45.6719 37.7481 46.1577 39.9344 46.1577 42.1207C46.1577 51.1088 38.8697 58.3964 29.8811 58.3964C20.8925 58.3964 13.6044 51.1088 13.6044 42.1207C13.6044 33.1326 20.8925 25.845 29.8811 25.845C32.3104 25.845 34.4968 26.3308 36.4403 27.3025C37.4121 27.7883 38.3838 27.3025 38.8697 26.5737ZM71.9089 14.4277C71.666 13.6989 71.1801 13.213 70.4513 13.213L60.4909 11.5126L58.7904 1.55283C58.7904 0.824063 58.3045 0.338221 57.5757 0.0952992C56.8469 -0.147622 56.1181 0.0952992 55.6322 0.581142L43.7284 12.4843C43.2425 12.9701 42.9996 13.456 43.2425 14.1847L45.186 24.3874L29.8811 39.6915H29.6381C28.1805 39.6915 26.9658 40.9061 26.9658 42.3636C26.9658 43.8211 28.1805 45.0357 29.6381 45.0357C31.0957 45.0357 32.3104 43.8211 32.3104 42.3636L47.8583 26.8166L57.8186 28.76H58.0616C58.5475 28.76 59.0333 28.5171 59.2763 28.2742L71.1801 16.371C71.9089 15.8852 72.1518 15.1564 71.9089 14.4277ZM47.1295 14.1847L55.8752 5.43957L57.0898 12.2414L48.5871 20.7436L47.1295 14.1847ZM57.8186 24.8733L51.2594 23.6587L59.7621 15.1564L66.3214 16.371L57.8186 24.8733Z" fill="black"/>
</svg>
